# xmcd
#
# Track frame offsets:
#	175
#	23570
#	57380
#
# Disc length: 1062 seconds
#
# Revision: 0
# Processed by: cddbd v1.5.1PL0 Copyright (c) Steve Scherf et al.
# Submitted via: dBpowerAMP V4.0
#
DISCID=1c042403
DTITLE=Flowered Up - It's On
DYEAR=1990
DGENRE=Alternative
TTITLE0=It´s On
TTITLE1=It´s On - sonia remix
TTITLE2=It's On - feel pain remix
EXTD=
EXTT0=
EXTT1=
EXTT2=
PLAYORDER=
